<svg xmlns="http://www.w3.org/2000/svg" version="1.1" xmlns:xlink="http://www.w3.org/1999/xlink" xmlns:svgjs="http://svgjs.dev/svgjs" width="60.46875" height="60.46875"><svg viewBox="0 0 19.35 19.35" width="60.46875" height="60.46875" version="1.1" id="SvgjsSvg1011" xmlns="http://www.w3.org/2000/svg" xmlns:svg="http://www.w3.org/2000/svg">
  <defs id="SvgjsDefs1010"></defs>
  <path d="M 0.67500001,9.675 C 0.67500001,2.2635 2.2635,0.67500001 9.675,0.67500001 c 7.4115,0 9,1.58849999 9,8.99999999 0,7.4115 -1.5885,9 -9,9 -7.4115,0 -8.99999999,-1.5885 -8.99999999,-9 z" class="_border_1han8_24" stroke="#343a40" fill="#ffffff" stroke-width="1.35px" id="SvgjsPath1009"></path>
  <path d="m 11.675,11.675 2,2" class="_magnify_1han8_29" stroke="#343a40" fill="#ffffff" stroke-width="2px" id="SvgjsPath1008"></path>
  <path d="m 12.675,9.175 c 0,1.933 -1.567,3.5 -3.5,3.5 -1.933,0 -3.5,-1.567 -3.5,-3.5 0,-1.933 1.567,-3.5 3.5,-3.5 1.933,0 3.5,1.567 3.5,3.5 z" class="_magnify_1han8_29" stroke="#343a40" fill="#ffffff" stroke-width="2px" id="SvgjsPath1007"></path>
  <path d="M 8.462169,8.419883 V 7.946757 c 0,-0.05319 -0.03639,-0.08119 -0.103584,-0.08119 -0.06159,0 -0.100784,0.028 -0.100784,0.08119 V 8.419883 H 7.989043 c -0.05039,0 -0.07559,0.03919 -0.07559,0.09519 0,0.05599 0.0252,0.09798 0.07559,0.09798 h 0.268758 v 0.607505 c -0.09798,0.0336 -0.198769,0.06719 -0.299553,0.09519 -0.0336,0.0112 -0.05599,0.04479 -0.05599,0.08959 0,0.0112 0,0.0224 0.0028,0.0336 0.0168,0.05039 0.05039,0.07279 0.08679,0.07279 0.0112,0 0.0196,-0.0028 0.03079,-0.0056 0.07839,-0.0224 0.156776,-0.05039 0.235164,-0.07839 v 0.725086 c 0,0.06999 -0.014,0.08959 -0.09798,0.08959 -0.04479,0 -0.120381,-0.0084 -0.159575,-0.0196 -0.0056,-0.0028 -0.0084,-0.0028 -0.014,-0.0028 -0.0336,0 -0.06439,0.0252 -0.07279,0.08119 -0.0028,0.0084 -0.0028,0.0196 -0.0028,0.028 0,0.04759 0.0224,0.07839 0.06439,0.08959 0.05319,0.0112 0.142777,0.0224 0.212766,0.0224 0.184772,0 0.274358,-0.06719 0.274358,-0.246361 V 9.34933 c 0.07559,-0.03079 0.148376,-0.06439 0.218365,-0.100785 0.03639,-0.0196 0.05319,-0.04759 0.05319,-0.08399 0,-0.0112 -0.0028,-0.0252 -0.0056,-0.03919 -0.014,-0.03919 -0.04199,-0.05879 -0.07279,-0.05879 -0.0112,0 -0.0252,0.0028 -0.03639,0.0084 -0.05039,0.0224 -0.100784,0.04479 -0.156775,0.06719 V 8.613046 h 0.170773 c 0.05039,0 0.07839,-0.04199 0.07839,-0.09798 0,-0.05599 -0.028,-0.09519 -0.07839,-0.09519 z M 9.663181,9.391331 V 9.161767 h 0.475926 c 0.153975,0 0.235163,-0.07279 0.235163,-0.235163 V 8.341495 c 0,-0.159575 -0.08119,-0.235163 -0.235163,-0.235163 H 9.663181 V 7.935558 c 0,-0.05039 -0.0336,-0.07559 -0.09798,-0.07559 -0.06439,0 -0.09519,0.0252 -0.09519,0.07559 V 8.106332 H 9.03328 c -0.156776,0 -0.235164,0.07279 -0.235164,0.235163 v 0.585109 c 0,0.162374 0.07839,0.235163 0.235164,0.235163 H 9.470012 V 9.391331 H 8.781319 c -0.04759,0 -0.07279,0.03919 -0.07279,0.08959 0,0.05319 0.0252,0.09239 0.07279,0.09239 h 0.176372 c 0.109183,0.19037 0.26036,0.349945 0.436732,0.478725 -0.215566,0.09519 -0.459128,0.159575 -0.70269,0.195969 -0.05319,0.0084 -0.08399,0.05039 -0.08399,0.100784 0,0.0084 0,0.0196 0.0028,0.028 0.014,0.05319 0.05319,0.08399 0.103584,0.08399 0.0084,0 0.0168,0 0.0252,-0.0028 0.285555,-0.04759 0.582309,-0.145577 0.845468,-0.282755 0.240762,0.137178 0.50672,0.229564 0.769878,0.277156 0.0112,0.0028 0.0224,0.0028 0.03079,0.0028 0.05599,0 0.09799,-0.028 0.106384,-0.08679 0.0028,-0.0084 0.0028,-0.0168 0.0028,-0.0252 0,-0.05319 -0.03079,-0.09519 -0.08679,-0.103584 -0.215558,-0.0336 -0.428324,-0.08959 -0.624293,-0.176373 0.170773,-0.109183 0.31915,-0.235163 0.428332,-0.375141 0.0364,-0.04759 0.05599,-0.100784 0.05599,-0.145577 0,-0.08399 -0.06159,-0.151177 -0.19037,-0.151177 z m 0,-0.405937 V 8.716636 h 0.51512 v 0.184771 c 0,0.05599 -0.0168,0.08399 -0.08119,0.08399 z m 0,-0.442331 V 8.282704 h 0.433932 c 0.06439,0 0.08119,0.0252 0.08119,0.08119 V 8.543066 Z M 9.470012,8.282704 V 8.543063 H 8.994086 V 8.363891 c 0,-0.05599 0.0196,-0.08119 0.08399,-0.08119 z m 0,0.433932 V 8.985394 H 9.078073 c -0.06439,0 -0.08399,-0.028 -0.08399,-0.08399 V 8.716633 Z m 0.489923,0.856667 c 0.0336,0 0.05039,0.0084 0.05039,0.0224 0,0.0112 -0.0056,0.0224 -0.0196,0.03919 C 9.889941,9.758073 9.749963,9.867257 9.584789,9.959642 9.425213,9.861652 9.276837,9.732877 9.176052,9.573302 Z" class="_kanji_1han8_15" fill="#ff0000" id="SvgjsPath1006"></path>
</svg><style>@media (prefers-color-scheme: light) { :root { filter: none; } }
@media (prefers-color-scheme: dark) { :root { filter: none; } }
</style></svg>